<?xml version="1.0" standalone="no"?>
<!DOCTYPE svg PUBLIC "-//W3C//DTD SVG 20010904//EN"
 "http://www.w3.org/TR/2001/REC-SVG-20010904/DTD/svg10.dtd">
<svg version="1.0" xmlns="http://www.w3.org/2000/svg"
 width="988.000000pt" height="988.000000pt" viewBox="0 0 988.000000 988.000000"
 preserveAspectRatio="xMidYMid meet">
<metadata>
Created by potrace 1.11, written by Peter Selinger 2001-2013
</metadata>
<g transform="translate(0.000000,988.000000) scale(0.100000,-0.100000)"
fill="#000000" stroke="none">
<path d="M800 9840 c0 -3 -16 -6 -35 -7 -36 -2 -132 -41 -160 -65 -64 -55
-126 -130 -131 -158 0 -3 -3 -12 -6 -20 -4 -8 -11 -31 -17 -50 -13 -38 -9
-5353 3 -5445 4 -27 9 -68 11 -90 3 -22 7 -58 10 -80 3 -22 8 -60 11 -84 3
-24 20 -121 40 -215 44 -218 42 -212 60 -272 8 -28 16 -61 19 -73 2 -11 7 -26
10 -31 3 -5 8 -19 10 -31 6 -29 69 -223 75 -229 3 -3 6 -12 8 -20 1 -8 17 -51
34 -95 83 -214 204 -464 310 -641 35 -58 69 -117 77 -132 8 -15 17 -29 20 -32
3 -3 28 -39 55 -80 27 -41 53 -76 58 -78 4 -2 8 -10 8 -18 0 -8 5 -14 10 -14
6 0 10 -7 10 -15 0 -8 3 -15 8 -15 4 0 18 -17 32 -37 27 -41 55 -76 83 -105 9
-10 17 -21 17 -26 0 -4 17 -26 38 -49 20 -22 64 -72 97 -110 113 -130 390
-399 498 -485 12 -9 58 -46 102 -81 118 -93 234 -175 378 -266 70 -45 129 -81
131 -81 2 0 46 -24 97 -53 93 -52 236 -124 334 -167 28 -12 68 -30 90 -40 174
-79 603 -215 765 -244 19 -3 46 -9 60 -11 61 -14 169 -34 206 -40 132 -19 147
-21 239 -30 39 -4 84 -9 100 -12 56 -9 610 -11 705 -2 145 13 247 24 305 33
17 3 46 7 65 10 19 3 44 7 55 9 11 3 40 8 65 12 25 4 54 9 65 12 11 3 29 6 40
8 11 2 21 4 23 5 1 2 7 4 12 5 6 1 11 3 13 5 1 1 16 3 32 4 17 2 40 6 52 10
12 4 30 9 40 11 10 2 33 8 51 14 17 5 32 7 32 4 0 -3 6 0 14 6 8 6 27 13 42
15 16 2 40 9 54 14 14 6 52 18 85 27 33 9 68 20 77 26 10 5 27 9 38 9 11 0 20
3 20 8 0 4 28 16 63 26 34 10 67 22 72 26 6 4 26 13 45 20 53 20 86 34 185 81
50 23 96 44 104 45 8 1 17 8 21 14 4 7 10 11 14 11 3 -1 30 11 59 26 28 15 55
26 60 25 4 -1 7 2 7 8 0 5 5 10 11 10 6 0 23 9 39 20 15 11 30 17 34 13 3 -3
6 -1 6 5 0 7 7 12 15 12 8 0 15 3 15 8 0 4 23 18 50 31 28 14 50 29 50 33 0 4
6 8 13 8 8 0 27 11 43 25 16 14 32 25 36 25 11 0 172 112 176 122 2 4 10 8 18
8 8 0 14 3 14 8 1 4 24 23 51 42 28 19 63 46 79 60 15 14 40 34 54 44 28 20
30 22 147 126 80 70 263 252 344 340 92 100 295 351 295 365 0 3 8 13 18 23 9
10 23 27 29 38 7 10 35 51 61 89 27 39 57 86 67 105 10 19 21 37 25 40 3 3 17
24 30 47 13 24 28 43 32 43 5 0 7 4 4 9 -3 5 4 20 15 35 11 14 17 26 12 26 -4
0 -3 4 2 8 6 4 17 21 25 37 8 17 17 32 20 35 7 7 89 176 130 265 17 39 38 83
46 98 8 16 14 34 14 40 0 7 7 25 15 41 8 15 21 47 29 70 8 22 24 66 36 96 12
30 23 62 25 70 2 8 11 38 20 65 15 41 66 218 80 275 31 126 80 379 89 460 3
25 8 56 11 69 2 13 7 62 11 109 3 47 9 95 12 106 3 12 8 1220 9 2686 3 2425 2
2670 -13 2720 -59 202 -251 322 -459 286 -43 -7 -136 -49 -168 -75 -10 -9
-370 -367 -800 -797 -641 -640 -786 -779 -802 -774 -11 3 -67 29 -125 57 -136
66 -223 104 -378 162 -117 44 -261 92 -279 93 -5 0 -24 6 -43 14 -29 12 -178
52 -255 69 -11 3 -31 7 -45 10 -14 4 -36 8 -50 11 -14 3 -81 16 -150 30 -69
14 -144 26 -167 27 -24 1 -43 4 -43 7 0 3 -12 5 -27 5 -16 -1 -32 1 -37 4 -5
2 -32 6 -60 8 -28 1 -67 5 -86 8 -92 13 -259 20 -515 20 -303 0 -416 -7 -680
-40 -16 -2 -52 -6 -80 -9 -27 -4 -57 -8 -65 -11 -8 -2 -33 -7 -55 -10 -22 -4
-47 -8 -55 -10 -8 -2 -31 -7 -50 -10 -62 -11 -243 -53 -340 -80 -52 -14 -99
-27 -105 -28 -38 -10 -282 -91 -290 -97 -12 -9 -67 -24 -77 -22 -5 1 -8 -2 -8
-8 0 -5 -9 -10 -19 -10 -11 0 -22 -4 -25 -9 -3 -5 -18 -12 -33 -16 -15 -3 -52
-18 -83 -32 -44 -21 -257 -123 -293 -141 -4 -2 -367 354 -805 792 -699 700
-803 800 -857 826 -33 16 -71 32 -85 34 -14 3 -25 5 -25 6 0 1 -24 2 -53 3
-28 1 -52 0 -52 -3z"/>
</g>
</svg>
