<svg width="123" height="119" viewBox="0 0 123 119" fill="none" xmlns="http://www.w3.org/2000/svg">
<path d="M44.3944 34.3413C50.8641 48.0558 36.4315 64.7585 24.7331 56.5671C19.6876 53.0342 17.9672 46.1976 19.4059 40.0048C22.7292 25.7024 38.8411 22.5648 44.3944 34.3413Z" fill="#FAC663" fill-opacity="0.15"/>
<path d="M53.9113 44.3248C40.9713 35.2641 52.4268 10.6577 67.2408 15.6665C73.9897 17.949 77.6044 26.3422 74.6152 34.9653C71.2671 44.632 61.186 49.4186 53.9113 44.3248Z" fill="#FAC663" fill-opacity="0.15"/>
<path d="M29.9516 85.6261C32.0953 86.3894 35.5079 88.3038 38.8786 90.5953C42.4435 93.0148 45.9617 95.8538 47.8905 98.187C53.0921 104.5 64.913 106.316 69.2903 95.9616C73.3361 86.389 66.5979 82.3776 70.6069 73.428C74.6632 64.3864 71.4257 56.3852 65.4492 52.6486C59.9172 49.191 52.0388 49.3886 45.4362 55.806C38.4025 62.6457 32.3448 57.6906 24.7377 64.7656C16.4931 72.4225 22.2775 82.8989 29.9516 85.6261Z" fill="#FAC663" fill-opacity="0.15"/>
<path d="M76.685 60.2722C73.0247 57.7093 71.3643 53.3901 71.8874 48.9253C73.4442 35.65 91.3165 28.2773 99.0519 37.9527C108.839 50.185 89.6179 69.328 76.685 60.2722Z" fill="#FAC663" fill-opacity="0.15"/>
<path d="M72.2021 79.1228C75.1395 66.0846 93.6514 60.6082 100.331 71.0872C108.378 83.7092 89.2213 100.433 76.7636 91.7098C72.7656 88.9104 71.0853 84.0791 72.2021 79.1228Z" fill="#FAC663" fill-opacity="0.15"/>
</svg>
