<svg width="84" height="85" viewBox="0 0 84 85" fill="none" xmlns="http://www.w3.org/2000/svg">
<path d="M71.0359 35.6712C55.9715 36.9495 45.2606 18.2456 56.9394 10.3681C61.9765 6.97063 68.971 7.69984 74.2813 11.0819C86.5451 18.8934 83.9709 34.5756 71.0359 35.6712Z" fill="#FAC663" fill-opacity="0.15"/>
<path d="M58.4245 40.9671C71.3428 32.2536 90.4782 50.9031 80.7152 62.6764C76.2668 68.0398 67.1653 68.5091 60.1087 62.9045C52.1969 56.6243 51.1621 45.8656 58.4245 40.9671Z" fill="#FAC663" fill-opacity="0.15"/>
<path d="M27.9256 5.36733C26.4768 7.05805 23.5151 9.51529 20.2144 11.808C16.7274 14.2343 12.8632 16.4775 10.0169 17.4469C2.32173 20.0544 -3.42527 30.1799 4.77824 37.6252C12.3631 44.5074 18.4278 39.7332 25.4414 46.3732C32.5251 53.087 41.1301 52.829 46.6766 48.6543C51.8095 44.7898 54.3206 37.5695 50.5673 29.423C46.5657 20.7435 53.2817 16.9035 49.256 7.62452C44.9032 -2.42844 33.1073 -0.68727 27.9256 5.36733Z" fill="#FAC663" fill-opacity="0.15"/>
<path d="M35.688 56.3019C39.3421 53.8372 43.9574 53.7771 47.9619 55.7485C59.8679 61.6116 60.6594 80.3119 48.9464 84.0933C34.1353 88.8811 22.7768 65.0106 35.688 56.3019Z" fill="#FAC663" fill-opacity="0.15"/>
<path d="M19.5594 45.9131C30.7708 52.9504 29.5667 71.5959 17.4619 74.1496C2.88131 77.2262 -6.23226 54.2252 6.20455 45.8365C10.1958 43.1443 15.2977 43.2377 19.5594 45.9131Z" fill="#FAC663" fill-opacity="0.15"/>
</svg>
